<svg width="32" height="32" viewBox="0 0 32 32" fill="none" xmlns="http://www.w3.org/2000/svg">
<path d="M11.9998 29.3334C12.7362 29.3334 13.3332 28.7365 13.3332 28.0001C13.3332 27.2637 12.7362 26.6667 11.9998 26.6667C11.2635 26.6667 10.6665 27.2637 10.6665 28.0001C10.6665 28.7365 11.2635 29.3334 11.9998 29.3334Z" stroke="#212529" stroke-width="2" stroke-linecap="round" stroke-linejoin="round"/>
<path d="M26.6666 29.3334C27.403 29.3334 27.9999 28.7365 27.9999 28.0001C27.9999 27.2637 27.403 26.6667 26.6666 26.6667C25.9302 26.6667 25.3333 27.2637 25.3333 28.0001C25.3333 28.7365 25.9302 29.3334 26.6666 29.3334Z" stroke="#212529" stroke-width="2" stroke-linecap="round" stroke-linejoin="round"/>
<path d="M1.33325 1.33337H6.66658L10.2399 19.1867C10.3618 19.8006 10.6958 20.352 11.1833 20.7444C11.6708 21.1369 12.2808 21.3454 12.9066 21.3334H25.8666C26.4923 21.3454 27.1023 21.1369 27.5899 20.7444C28.0774 20.352 28.4113 19.8006 28.5332 19.1867L30.6666 8.00004H7.99992" stroke="#212529" stroke-width="2" stroke-linecap="round" stroke-linejoin="round"/>
</svg>
